<?xml version="1.0" encoding="utf-8"?>
<!-- Generator: Adobe Illustrator 19.2.1, SVG Export Plug-In . SVG Version: 6.00 Build 0)  -->
<svg version="1.1" id="レイヤー_1" xmlns="http://www.w3.org/2000/svg" xmlns:xlink="http://www.w3.org/1999/xlink" x="0px"
	 y="0px" viewBox="0 0 334.8 121.4" style="enable-background:new 0 0 334.8 121.4;" xml:space="preserve">
<style type="text/css">
	.st0{font-family:'TimesNewRomanPSMT';}
	.st1{font-size:14px;}
	.st2{font-size:18px;}
	.st3{fill:none;stroke:#000000;stroke-width:4;stroke-miterlimit:10;}
</style>
<text transform="matrix(1 0 0 1 -2.260208e-04 11.6347)" class="st0 st1">Connecting  power of elaborate  TRIQS and ALPS libraries</text>
<text transform="matrix(1 0 0 1 58.1762 76.718)" class="st0 st2">TRIQS</text>
<text transform="matrix(1 0 0 1 229.8893 76.7181)" class="st0 st2">ALPSCore</text>
<g>
	<g>
		<path class="st3" d="M214.5,85.7c-5.3,19.4-23,33.7-44.1,33.7c-25.2,0-45.7-20.5-45.7-45.7"/>
		<g>
			<path d="M216.1,73.7c-2.9,5.3-7.5,11.8-11.9,15.5l9.9-2L223,92C219.8,87.1,217.3,79.6,216.1,73.7z"/>
		</g>
	</g>
</g>
<g>
	<g>
		<path class="st3" d="M126.3,55.7c5.3-19.4,23-33.7,44.1-33.7c25.2,0,45.7,20.5,45.7,45.7"/>
		<g>
			<path d="M124.7,67.7c2.9-5.3,7.5-11.8,11.9-15.5l-9.9,2l-8.9-4.8C120.9,54.3,123.4,61.8,124.7,67.7z"/>
		</g>
	</g>
</g>
</svg>
